<svg height="512pt" viewBox="0 0 512 512" width="512pt" xmlns="http://www.w3.org/2000/svg"><path d="m512 482.199219v29.800781h-512v-29.800781c0-51.597657 37.898438-95.097657 88.597656-103.5l92.402344-15.300781v-33.597657h150v33.597657l92.402344 15.300781c50.699218 8.402343 88.597656 51.902343 88.597656 103.5zm0 0" fill="#7ed8f6"/><path d="m512 482.199219v29.800781h-256v-182.199219h75v33.597657l92.402344 15.300781c50.699218 8.402343 88.597656 51.902343 88.597656 103.5zm0 0" fill="#6aa9ff"/><path d="m391 153.699219v72.300781c0 74.398438-60.601562 135-135 135s-135-60.601562-135-135v-72.300781zm0 0" fill="#fde4e4"/><path d="m256 153.699219h135v72.300781c0 74.398438-60.601562 135-135 135zm0 0" fill="#fcced3"/><path d="m391 75v15l-30 31h-210l-30-31v-15c0-41.398438 33.601562-75 75-75h120c41.398438 0 75 33.601562 75 75zm0 0" fill="#7ed8f6"/><path d="m331 421h60v30h-60zm0 0" fill="#b4d2d7"/><path d="m391 75v15l-30 31h-105v-121h60c41.398438 0 75 33.601562 75 75zm0 0" fill="#6aa9ff"/><path d="m301 256c0 24.898438-20.097656 45-45 45s-45-20.101562-45-45h30c0 8.398438 6.597656 15 15 15s15-6.601562 15-15zm0 0" fill="#fcced3"/><path d="m256 301v-30c8.402344 0 15-6.601562 15-15h30c0 24.898438-20.097656 45-45 45zm0 0" fill="#faaaaa"/><path d="m121 90v63.699219c0 31.5 25.800781 57.300781 57.300781 57.300781 15.597657 0 30-6 40.800781-16.800781 10.199219-10.199219 23.699219-15.300781 36.898438-15.300781s26.699219 5.101562 36.898438 15.300781c10.800781 10.800781 25.203124 16.800781 40.800781 16.800781 31.5 0 57.300781-25.800781 57.300781-57.300781v-63.699219zm0 0" fill="#6aa9ff"/><path d="m292.898438 194.199219c-10.199219-10.199219-23.699219-15.300781-36.898438-15.300781v-88.898438h135v63.699219c0 31.5-25.800781 57.300781-57.300781 57.300781-15.597657 0-30-6-40.800781-16.800781zm0 0" fill="#4895ff"/></svg>